<mxfile host="app.diagrams.net" modified="2024-04-19T12:23:20.332Z" agent="Mozilla/5.0 (Windows NT 10.0; Win64; x64) AppleWebKit/537.36 (KHTML, like Gecko) Chrome/123.0.0.0 Safari/537.36" etag="A_YCgNlnjWH_ufYfe40F" version="24.2.5" type="device">
  <diagram name="หน้า-1" id="s1S_OUGHBjVsvHDJxbQ4">
    <mxGraphModel dx="1502" dy="1440" grid="1" gridSize="10" guides="1" tooltips="1" connect="1" arrows="1" fold="1" page="1" pageScale="1" pageWidth="1169" pageHeight="827" math="0" shadow="0">
      <root>
        <mxCell id="0" />
        <mxCell id="1" parent="0" />
        <mxCell id="BEnT6rQUfcXDqJ1LdMgR-1" value="users" style="rounded=0;whiteSpace=wrap;html=1;" parent="1" vertex="1">
          <mxGeometry x="1280" y="1050" width="120" height="80" as="geometry" />
        </mxCell>
        <mxCell id="BEnT6rQUfcXDqJ1LdMgR-2" value="&lt;u&gt;user_id&lt;/u&gt;" style="ellipse;whiteSpace=wrap;html=1;" parent="1" vertex="1">
          <mxGeometry x="990" y="1300" width="120" height="80" as="geometry" />
        </mxCell>
        <mxCell id="BEnT6rQUfcXDqJ1LdMgR-3" value="username" style="ellipse;whiteSpace=wrap;html=1;" parent="1" vertex="1">
          <mxGeometry x="1000" y="1210" width="120" height="80" as="geometry" />
        </mxCell>
        <mxCell id="BEnT6rQUfcXDqJ1LdMgR-4" value="password" style="ellipse;whiteSpace=wrap;html=1;" parent="1" vertex="1">
          <mxGeometry x="990" y="1120" width="120" height="80" as="geometry" />
        </mxCell>
        <mxCell id="BEnT6rQUfcXDqJ1LdMgR-5" value="firstname" style="ellipse;whiteSpace=wrap;html=1;" parent="1" vertex="1">
          <mxGeometry x="990" y="1020" width="120" height="80" as="geometry" />
        </mxCell>
        <mxCell id="BEnT6rQUfcXDqJ1LdMgR-6" value="lastname" style="ellipse;whiteSpace=wrap;html=1;" parent="1" vertex="1">
          <mxGeometry x="1270" y="1310" width="120" height="80" as="geometry" />
        </mxCell>
        <mxCell id="BEnT6rQUfcXDqJ1LdMgR-7" value="gender" style="ellipse;whiteSpace=wrap;html=1;" parent="1" vertex="1">
          <mxGeometry x="1390" y="1270" width="120" height="80" as="geometry" />
        </mxCell>
        <mxCell id="BEnT6rQUfcXDqJ1LdMgR-8" value="email" style="ellipse;whiteSpace=wrap;html=1;" parent="1" vertex="1">
          <mxGeometry x="1490" y="1170" width="120" height="80" as="geometry" />
        </mxCell>
        <mxCell id="BEnT6rQUfcXDqJ1LdMgR-9" value="user_type" style="ellipse;whiteSpace=wrap;html=1;" parent="1" vertex="1">
          <mxGeometry x="1520" y="1260" width="120" height="80" as="geometry" />
        </mxCell>
        <mxCell id="BEnT6rQUfcXDqJ1LdMgR-10" value="tel" style="ellipse;whiteSpace=wrap;html=1;" parent="1" vertex="1">
          <mxGeometry x="1190" y="1390" width="120" height="80" as="geometry" />
        </mxCell>
        <mxCell id="BEnT6rQUfcXDqJ1LdMgR-11" value="address" style="ellipse;whiteSpace=wrap;html=1;" parent="1" vertex="1">
          <mxGeometry x="1110" y="1320" width="120" height="80" as="geometry" />
        </mxCell>
        <mxCell id="BEnT6rQUfcXDqJ1LdMgR-23" value="มี" style="rhombus;whiteSpace=wrap;html=1;" parent="1" vertex="1">
          <mxGeometry x="1700" y="100" width="140" height="120" as="geometry" />
        </mxCell>
        <mxCell id="BEnT6rQUfcXDqJ1LdMgR-25" value="products" style="rounded=0;whiteSpace=wrap;html=1;" parent="1" vertex="1">
          <mxGeometry x="1280" y="120" width="120" height="80" as="geometry" />
        </mxCell>
        <mxCell id="BEnT6rQUfcXDqJ1LdMgR-26" value="&lt;u&gt;product_id&lt;/u&gt;" style="ellipse;whiteSpace=wrap;html=1;" parent="1" vertex="1">
          <mxGeometry x="1140" y="240" width="120" height="80" as="geometry" />
        </mxCell>
        <mxCell id="BEnT6rQUfcXDqJ1LdMgR-27" value="product_name" style="ellipse;whiteSpace=wrap;html=1;" parent="1" vertex="1">
          <mxGeometry x="1020" y="220" width="120" height="80" as="geometry" />
        </mxCell>
        <mxCell id="BEnT6rQUfcXDqJ1LdMgR-28" value="description" style="ellipse;whiteSpace=wrap;html=1;" parent="1" vertex="1">
          <mxGeometry x="1049" y="130" width="120" height="80" as="geometry" />
        </mxCell>
        <mxCell id="BEnT6rQUfcXDqJ1LdMgR-29" value="price" style="ellipse;whiteSpace=wrap;html=1;" parent="1" vertex="1">
          <mxGeometry x="1030" y="40" width="120" height="80" as="geometry" />
        </mxCell>
        <mxCell id="BEnT6rQUfcXDqJ1LdMgR-30" value="quantity" style="ellipse;whiteSpace=wrap;html=1;" parent="1" vertex="1">
          <mxGeometry x="1010" y="-40" width="120" height="80" as="geometry" />
        </mxCell>
        <mxCell id="BEnT6rQUfcXDqJ1LdMgR-31" value="category_id" style="ellipse;whiteSpace=wrap;html=1;" parent="1" vertex="1">
          <mxGeometry x="1010" y="-130" width="120" height="80" as="geometry" />
        </mxCell>
        <mxCell id="BEnT6rQUfcXDqJ1LdMgR-32" value="image_url" style="ellipse;whiteSpace=wrap;html=1;" parent="1" vertex="1">
          <mxGeometry x="1110" y="-180" width="120" height="80" as="geometry" />
        </mxCell>
        <mxCell id="BEnT6rQUfcXDqJ1LdMgR-33" value="status" style="ellipse;whiteSpace=wrap;html=1;" parent="1" vertex="1">
          <mxGeometry x="1169" y="-260" width="120" height="80" as="geometry" />
        </mxCell>
        <mxCell id="BEnT6rQUfcXDqJ1LdMgR-34" value="added_date" style="ellipse;whiteSpace=wrap;html=1;" parent="1" vertex="1">
          <mxGeometry x="1340" y="-110" width="120" height="80" as="geometry" />
        </mxCell>
        <mxCell id="BEnT6rQUfcXDqJ1LdMgR-37" value="" style="endArrow=none;html=1;rounded=0;entryX=0;entryY=1;entryDx=0;entryDy=0;" parent="1" source="BEnT6rQUfcXDqJ1LdMgR-26" target="BEnT6rQUfcXDqJ1LdMgR-25" edge="1">
          <mxGeometry width="50" height="50" relative="1" as="geometry">
            <mxPoint x="1080" y="360" as="sourcePoint" />
            <mxPoint x="1130" y="310" as="targetPoint" />
          </mxGeometry>
        </mxCell>
        <mxCell id="BEnT6rQUfcXDqJ1LdMgR-40" value="" style="endArrow=none;html=1;rounded=0;entryX=0;entryY=0.75;entryDx=0;entryDy=0;" parent="1" source="BEnT6rQUfcXDqJ1LdMgR-27" target="BEnT6rQUfcXDqJ1LdMgR-25" edge="1">
          <mxGeometry width="50" height="50" relative="1" as="geometry">
            <mxPoint x="1080" y="273" as="sourcePoint" />
            <mxPoint x="1130" y="223" as="targetPoint" />
          </mxGeometry>
        </mxCell>
        <mxCell id="BEnT6rQUfcXDqJ1LdMgR-41" value="" style="endArrow=none;html=1;rounded=0;entryX=0;entryY=0.5;entryDx=0;entryDy=0;" parent="1" source="BEnT6rQUfcXDqJ1LdMgR-28" target="BEnT6rQUfcXDqJ1LdMgR-25" edge="1">
          <mxGeometry width="50" height="50" relative="1" as="geometry">
            <mxPoint x="1080" y="180" as="sourcePoint" />
            <mxPoint x="1130" y="130" as="targetPoint" />
          </mxGeometry>
        </mxCell>
        <mxCell id="BEnT6rQUfcXDqJ1LdMgR-42" value="" style="endArrow=none;html=1;rounded=0;entryX=0;entryY=0.25;entryDx=0;entryDy=0;" parent="1" source="BEnT6rQUfcXDqJ1LdMgR-29" target="BEnT6rQUfcXDqJ1LdMgR-25" edge="1">
          <mxGeometry width="50" height="50" relative="1" as="geometry">
            <mxPoint x="1080" y="90" as="sourcePoint" />
            <mxPoint x="1130" y="40" as="targetPoint" />
          </mxGeometry>
        </mxCell>
        <mxCell id="BEnT6rQUfcXDqJ1LdMgR-43" value="" style="endArrow=none;html=1;rounded=0;entryX=0;entryY=0;entryDx=0;entryDy=0;" parent="1" source="BEnT6rQUfcXDqJ1LdMgR-30" target="BEnT6rQUfcXDqJ1LdMgR-25" edge="1">
          <mxGeometry width="50" height="50" relative="1" as="geometry">
            <mxPoint x="1080" as="sourcePoint" />
            <mxPoint x="1130" y="-50" as="targetPoint" />
          </mxGeometry>
        </mxCell>
        <mxCell id="BEnT6rQUfcXDqJ1LdMgR-44" value="" style="endArrow=none;html=1;rounded=0;entryX=0.25;entryY=0;entryDx=0;entryDy=0;" parent="1" source="BEnT6rQUfcXDqJ1LdMgR-31" target="BEnT6rQUfcXDqJ1LdMgR-25" edge="1">
          <mxGeometry width="50" height="50" relative="1" as="geometry">
            <mxPoint x="1210" as="sourcePoint" />
            <mxPoint x="1260" y="-50" as="targetPoint" />
          </mxGeometry>
        </mxCell>
        <mxCell id="BEnT6rQUfcXDqJ1LdMgR-45" value="" style="endArrow=none;html=1;rounded=0;exitX=0.5;exitY=1;exitDx=0;exitDy=0;" parent="1" source="BEnT6rQUfcXDqJ1LdMgR-32" edge="1">
          <mxGeometry width="50" height="50" relative="1" as="geometry">
            <mxPoint x="1230" as="sourcePoint" />
            <mxPoint x="1320" y="120" as="targetPoint" />
          </mxGeometry>
        </mxCell>
        <mxCell id="BEnT6rQUfcXDqJ1LdMgR-46" value="" style="endArrow=none;html=1;rounded=0;entryX=0.5;entryY=1;entryDx=0;entryDy=0;" parent="1" target="BEnT6rQUfcXDqJ1LdMgR-33" edge="1">
          <mxGeometry width="50" height="50" relative="1" as="geometry">
            <mxPoint x="1320" y="120" as="sourcePoint" />
            <mxPoint x="1430" y="-10" as="targetPoint" />
          </mxGeometry>
        </mxCell>
        <mxCell id="BEnT6rQUfcXDqJ1LdMgR-47" value="" style="endArrow=none;html=1;rounded=0;exitX=0.41;exitY=-0.006;exitDx=0;exitDy=0;entryX=0.29;entryY=0.976;entryDx=0;entryDy=0;entryPerimeter=0;exitPerimeter=0;" parent="1" source="BEnT6rQUfcXDqJ1LdMgR-25" target="BEnT6rQUfcXDqJ1LdMgR-34" edge="1">
          <mxGeometry width="50" height="50" relative="1" as="geometry">
            <mxPoint x="1410" as="sourcePoint" />
            <mxPoint x="1460" y="-50" as="targetPoint" />
          </mxGeometry>
        </mxCell>
        <mxCell id="BEnT6rQUfcXDqJ1LdMgR-49" value="categories" style="rounded=0;whiteSpace=wrap;html=1;" parent="1" vertex="1">
          <mxGeometry x="2281" y="120" width="120" height="80" as="geometry" />
        </mxCell>
        <mxCell id="BEnT6rQUfcXDqJ1LdMgR-51" value="" style="endArrow=none;html=1;rounded=0;entryX=0.451;entryY=0.992;entryDx=0;entryDy=0;entryPerimeter=0;" parent="1" target="BEnT6rQUfcXDqJ1LdMgR-52" edge="1">
          <mxGeometry width="50" height="50" relative="1" as="geometry">
            <mxPoint x="2316" y="120" as="sourcePoint" />
            <mxPoint x="2311" y="-20" as="targetPoint" />
          </mxGeometry>
        </mxCell>
        <mxCell id="BEnT6rQUfcXDqJ1LdMgR-52" value="&lt;u&gt;category_id&lt;/u&gt;" style="ellipse;whiteSpace=wrap;html=1;" parent="1" vertex="1">
          <mxGeometry x="2261" y="-100" width="120" height="80" as="geometry" />
        </mxCell>
        <mxCell id="BEnT6rQUfcXDqJ1LdMgR-53" value="" style="endArrow=none;html=1;rounded=0;entryX=0.339;entryY=0.946;entryDx=0;entryDy=0;entryPerimeter=0;" parent="1" target="BEnT6rQUfcXDqJ1LdMgR-54" edge="1">
          <mxGeometry width="50" height="50" relative="1" as="geometry">
            <mxPoint x="2371" y="120" as="sourcePoint" />
            <mxPoint x="2431" y="-20" as="targetPoint" />
          </mxGeometry>
        </mxCell>
        <mxCell id="BEnT6rQUfcXDqJ1LdMgR-54" value="category_name" style="ellipse;whiteSpace=wrap;html=1;" parent="1" vertex="1">
          <mxGeometry x="2391" y="-100" width="120" height="80" as="geometry" />
        </mxCell>
        <mxCell id="BEnT6rQUfcXDqJ1LdMgR-55" value="" style="endArrow=none;html=1;rounded=0;entryX=1;entryY=0.5;entryDx=0;entryDy=0;exitX=0;exitY=0.5;exitDx=0;exitDy=0;" parent="1" source="BEnT6rQUfcXDqJ1LdMgR-23" target="BEnT6rQUfcXDqJ1LdMgR-25" edge="1">
          <mxGeometry width="50" height="50" relative="1" as="geometry">
            <mxPoint x="1610" y="90" as="sourcePoint" />
            <mxPoint x="1660" y="40" as="targetPoint" />
          </mxGeometry>
        </mxCell>
        <mxCell id="BEnT6rQUfcXDqJ1LdMgR-56" value="" style="endArrow=none;html=1;rounded=0;entryX=0;entryY=0.5;entryDx=0;entryDy=0;exitX=0.937;exitY=0.472;exitDx=0;exitDy=0;exitPerimeter=0;" parent="1" source="BEnT6rQUfcXDqJ1LdMgR-23" target="BEnT6rQUfcXDqJ1LdMgR-49" edge="1">
          <mxGeometry width="50" height="50" relative="1" as="geometry">
            <mxPoint x="1730" y="159.5" as="sourcePoint" />
            <mxPoint x="1830" y="159.5" as="targetPoint" />
          </mxGeometry>
        </mxCell>
        <mxCell id="BEnT6rQUfcXDqJ1LdMgR-57" value="1" style="text;html=1;align=center;verticalAlign=middle;resizable=0;points=[];autosize=1;strokeColor=none;fillColor=none;" parent="1" vertex="1">
          <mxGeometry x="2251" y="130" width="30" height="30" as="geometry" />
        </mxCell>
        <mxCell id="BEnT6rQUfcXDqJ1LdMgR-59" value="pattern" style="rounded=0;whiteSpace=wrap;html=1;" parent="1" vertex="1">
          <mxGeometry x="2281" y="560" width="120" height="80" as="geometry" />
        </mxCell>
        <mxCell id="BEnT6rQUfcXDqJ1LdMgR-60" value="มี" style="rhombus;whiteSpace=wrap;html=1;" parent="1" vertex="1">
          <mxGeometry x="2271" y="300" width="140" height="120" as="geometry" />
        </mxCell>
        <mxCell id="BEnT6rQUfcXDqJ1LdMgR-62" value="" style="endArrow=none;html=1;rounded=0;" parent="1" source="BEnT6rQUfcXDqJ1LdMgR-59" target="BEnT6rQUfcXDqJ1LdMgR-60" edge="1">
          <mxGeometry width="50" height="50" relative="1" as="geometry">
            <mxPoint x="1700.7" y="520" as="sourcePoint" />
            <mxPoint x="1700.7" y="420" as="targetPoint" />
          </mxGeometry>
        </mxCell>
        <mxCell id="BEnT6rQUfcXDqJ1LdMgR-63" value="" style="endArrow=none;html=1;rounded=0;exitX=0.5;exitY=0;exitDx=0;exitDy=0;entryX=0;entryY=0.5;entryDx=0;entryDy=0;" parent="1" source="BEnT6rQUfcXDqJ1LdMgR-64" target="BEnT6rQUfcXDqJ1LdMgR-59" edge="1">
          <mxGeometry width="50" height="50" relative="1" as="geometry">
            <mxPoint x="2231" y="650" as="sourcePoint" />
            <mxPoint x="2281" y="600" as="targetPoint" />
          </mxGeometry>
        </mxCell>
        <mxCell id="BEnT6rQUfcXDqJ1LdMgR-64" value="&lt;u&gt;pattern_id&lt;/u&gt;" style="ellipse;whiteSpace=wrap;html=1;" parent="1" vertex="1">
          <mxGeometry x="2041" y="640" width="120" height="80" as="geometry" />
        </mxCell>
        <mxCell id="BEnT6rQUfcXDqJ1LdMgR-65" value="pattern_name" style="ellipse;whiteSpace=wrap;html=1;" parent="1" vertex="1">
          <mxGeometry x="2170" y="680" width="120" height="80" as="geometry" />
        </mxCell>
        <mxCell id="BEnT6rQUfcXDqJ1LdMgR-67" value="" style="endArrow=none;html=1;rounded=0;entryX=0.183;entryY=1.017;entryDx=0;entryDy=0;entryPerimeter=0;exitX=0.5;exitY=0;exitDx=0;exitDy=0;" parent="1" source="BEnT6rQUfcXDqJ1LdMgR-65" target="BEnT6rQUfcXDqJ1LdMgR-59" edge="1">
          <mxGeometry width="50" height="50" relative="1" as="geometry">
            <mxPoint x="2261" y="700" as="sourcePoint" />
            <mxPoint x="2311" y="650" as="targetPoint" />
          </mxGeometry>
        </mxCell>
        <mxCell id="BEnT6rQUfcXDqJ1LdMgR-68" value="pattern_media" style="ellipse;whiteSpace=wrap;html=1;" parent="1" vertex="1">
          <mxGeometry x="2311" y="680" width="120" height="80" as="geometry" />
        </mxCell>
        <mxCell id="BEnT6rQUfcXDqJ1LdMgR-69" value="" style="endArrow=none;html=1;rounded=0;exitX=0.5;exitY=0;exitDx=0;exitDy=0;" parent="1" source="BEnT6rQUfcXDqJ1LdMgR-68" edge="1">
          <mxGeometry width="50" height="50" relative="1" as="geometry">
            <mxPoint x="2316" y="690" as="sourcePoint" />
            <mxPoint x="2366" y="640" as="targetPoint" />
          </mxGeometry>
        </mxCell>
        <mxCell id="BEnT6rQUfcXDqJ1LdMgR-70" value="" style="endArrow=none;html=1;rounded=0;entryX=0.5;entryY=1;entryDx=0;entryDy=0;exitX=0.5;exitY=0;exitDx=0;exitDy=0;" parent="1" source="BEnT6rQUfcXDqJ1LdMgR-60" target="BEnT6rQUfcXDqJ1LdMgR-49" edge="1">
          <mxGeometry width="50" height="50" relative="1" as="geometry">
            <mxPoint x="2261" y="330" as="sourcePoint" />
            <mxPoint x="2311" y="280" as="targetPoint" />
          </mxGeometry>
        </mxCell>
        <mxCell id="BEnT6rQUfcXDqJ1LdMgR-71" value="1" style="text;html=1;align=center;verticalAlign=middle;resizable=0;points=[];autosize=1;strokeColor=none;fillColor=none;" parent="1" vertex="1">
          <mxGeometry x="2306" y="205" width="30" height="30" as="geometry" />
        </mxCell>
        <mxCell id="BEnT6rQUfcXDqJ1LdMgR-72" value="M" style="text;html=1;align=center;verticalAlign=middle;resizable=0;points=[];autosize=1;strokeColor=none;fillColor=none;" parent="1" vertex="1">
          <mxGeometry x="1400" y="130" width="30" height="30" as="geometry" />
        </mxCell>
        <mxCell id="BEnT6rQUfcXDqJ1LdMgR-73" value="M" style="text;html=1;align=center;verticalAlign=middle;resizable=0;points=[];autosize=1;strokeColor=none;fillColor=none;" parent="1" vertex="1">
          <mxGeometry x="2311" y="530" width="30" height="30" as="geometry" />
        </mxCell>
        <mxCell id="BEnT6rQUfcXDqJ1LdMgR-74" value="category_id" style="ellipse;whiteSpace=wrap;html=1;" parent="1" vertex="1">
          <mxGeometry x="2461" y="680" width="120" height="80" as="geometry" />
        </mxCell>
        <mxCell id="BEnT6rQUfcXDqJ1LdMgR-75" value="" style="endArrow=none;html=1;rounded=0;entryX=0.283;entryY=0.044;entryDx=0;entryDy=0;entryPerimeter=0;exitX=1;exitY=0.5;exitDx=0;exitDy=0;" parent="1" source="BEnT6rQUfcXDqJ1LdMgR-59" target="BEnT6rQUfcXDqJ1LdMgR-74" edge="1">
          <mxGeometry width="50" height="50" relative="1" as="geometry">
            <mxPoint x="2431" y="605" as="sourcePoint" />
            <mxPoint x="2451" y="555" as="targetPoint" />
          </mxGeometry>
        </mxCell>
        <mxCell id="BEnT6rQUfcXDqJ1LdMgR-77" value="ซื้อ" style="rhombus;whiteSpace=wrap;html=1;" parent="1" vertex="1">
          <mxGeometry x="1300" y="530" width="80" height="80" as="geometry" />
        </mxCell>
        <mxCell id="BEnT6rQUfcXDqJ1LdMgR-78" value="" style="endArrow=none;html=1;rounded=0;entryX=0.5;entryY=1;entryDx=0;entryDy=0;exitX=0.5;exitY=0;exitDx=0;exitDy=0;" parent="1" source="BEnT6rQUfcXDqJ1LdMgR-1" target="BEnT6rQUfcXDqJ1LdMgR-77" edge="1">
          <mxGeometry width="50" height="50" relative="1" as="geometry">
            <mxPoint x="1360" y="930" as="sourcePoint" />
            <mxPoint x="1410" y="880" as="targetPoint" />
          </mxGeometry>
        </mxCell>
        <mxCell id="BEnT6rQUfcXDqJ1LdMgR-79" value="" style="endArrow=none;html=1;rounded=0;entryX=0.5;entryY=1;entryDx=0;entryDy=0;exitX=0.5;exitY=0;exitDx=0;exitDy=0;" parent="1" source="BEnT6rQUfcXDqJ1LdMgR-77" target="BEnT6rQUfcXDqJ1LdMgR-25" edge="1">
          <mxGeometry width="50" height="50" relative="1" as="geometry">
            <mxPoint x="1370" y="335" as="sourcePoint" />
            <mxPoint x="1370" y="205" as="targetPoint" />
          </mxGeometry>
        </mxCell>
        <mxCell id="BEnT6rQUfcXDqJ1LdMgR-80" value="1" style="text;html=1;align=center;verticalAlign=middle;resizable=0;points=[];autosize=1;strokeColor=none;fillColor=none;" parent="1" vertex="1">
          <mxGeometry x="1330" y="1020" width="30" height="30" as="geometry" />
        </mxCell>
        <mxCell id="BEnT6rQUfcXDqJ1LdMgR-81" value="M" style="text;html=1;align=center;verticalAlign=middle;resizable=0;points=[];autosize=1;strokeColor=none;fillColor=none;" parent="1" vertex="1">
          <mxGeometry x="1330" y="200" width="30" height="30" as="geometry" />
        </mxCell>
        <mxCell id="BEnT6rQUfcXDqJ1LdMgR-84" value="" style="endArrow=none;html=1;rounded=0;entryX=1;entryY=0.5;entryDx=0;entryDy=0;exitX=0;exitY=0.25;exitDx=0;exitDy=0;" parent="1" source="BEnT6rQUfcXDqJ1LdMgR-1" target="BEnT6rQUfcXDqJ1LdMgR-5" edge="1">
          <mxGeometry width="50" height="50" relative="1" as="geometry">
            <mxPoint x="1320" y="1050" as="sourcePoint" />
            <mxPoint x="1210" y="920" as="targetPoint" />
          </mxGeometry>
        </mxCell>
        <mxCell id="BEnT6rQUfcXDqJ1LdMgR-85" value="" style="endArrow=none;html=1;rounded=0;entryX=1;entryY=0.5;entryDx=0;entryDy=0;exitX=-0.003;exitY=0.38;exitDx=0;exitDy=0;exitPerimeter=0;" parent="1" source="BEnT6rQUfcXDqJ1LdMgR-1" target="BEnT6rQUfcXDqJ1LdMgR-4" edge="1">
          <mxGeometry width="50" height="50" relative="1" as="geometry">
            <mxPoint x="1280" y="1070" as="sourcePoint" />
            <mxPoint x="1210" y="920" as="targetPoint" />
          </mxGeometry>
        </mxCell>
        <mxCell id="BEnT6rQUfcXDqJ1LdMgR-86" value="" style="endArrow=none;html=1;rounded=0;entryX=0.988;entryY=0.372;entryDx=0;entryDy=0;entryPerimeter=0;" parent="1" target="BEnT6rQUfcXDqJ1LdMgR-3" edge="1">
          <mxGeometry width="50" height="50" relative="1" as="geometry">
            <mxPoint x="1280" y="1090" as="sourcePoint" />
            <mxPoint x="1230" y="1090" as="targetPoint" />
          </mxGeometry>
        </mxCell>
        <mxCell id="BEnT6rQUfcXDqJ1LdMgR-87" value="" style="endArrow=none;html=1;rounded=0;entryX=0.913;entryY=0.255;entryDx=0;entryDy=0;exitX=0.001;exitY=0.688;exitDx=0;exitDy=0;exitPerimeter=0;entryPerimeter=0;" parent="1" source="BEnT6rQUfcXDqJ1LdMgR-1" target="BEnT6rQUfcXDqJ1LdMgR-2" edge="1">
          <mxGeometry width="50" height="50" relative="1" as="geometry">
            <mxPoint x="1160" y="1200" as="sourcePoint" />
            <mxPoint x="1210" y="1150" as="targetPoint" />
          </mxGeometry>
        </mxCell>
        <mxCell id="BEnT6rQUfcXDqJ1LdMgR-88" value="" style="endArrow=none;html=1;rounded=0;entryX=0.004;entryY=0.904;entryDx=0;entryDy=0;entryPerimeter=0;" parent="1" source="BEnT6rQUfcXDqJ1LdMgR-11" target="BEnT6rQUfcXDqJ1LdMgR-1" edge="1">
          <mxGeometry width="50" height="50" relative="1" as="geometry">
            <mxPoint x="1160" y="1200" as="sourcePoint" />
            <mxPoint x="1210" y="1150" as="targetPoint" />
          </mxGeometry>
        </mxCell>
        <mxCell id="BEnT6rQUfcXDqJ1LdMgR-89" value="" style="endArrow=none;html=1;rounded=0;exitX=0.5;exitY=0;exitDx=0;exitDy=0;entryX=0.116;entryY=0.996;entryDx=0;entryDy=0;entryPerimeter=0;" parent="1" source="BEnT6rQUfcXDqJ1LdMgR-10" target="BEnT6rQUfcXDqJ1LdMgR-1" edge="1">
          <mxGeometry width="50" height="50" relative="1" as="geometry">
            <mxPoint x="1210" y="1220" as="sourcePoint" />
            <mxPoint x="1260" y="1170" as="targetPoint" />
          </mxGeometry>
        </mxCell>
        <mxCell id="BEnT6rQUfcXDqJ1LdMgR-90" value="" style="endArrow=none;html=1;rounded=0;exitX=0.397;exitY=0.038;exitDx=0;exitDy=0;exitPerimeter=0;entryX=0.365;entryY=1.006;entryDx=0;entryDy=0;entryPerimeter=0;" parent="1" source="BEnT6rQUfcXDqJ1LdMgR-6" target="BEnT6rQUfcXDqJ1LdMgR-1" edge="1">
          <mxGeometry width="50" height="50" relative="1" as="geometry">
            <mxPoint x="1370" y="1200" as="sourcePoint" />
            <mxPoint x="1420" y="1150" as="targetPoint" />
          </mxGeometry>
        </mxCell>
        <mxCell id="BEnT6rQUfcXDqJ1LdMgR-91" value="" style="endArrow=none;html=1;rounded=0;exitX=0.31;exitY=-0.003;exitDx=0;exitDy=0;exitPerimeter=0;entryX=0.663;entryY=0.992;entryDx=0;entryDy=0;entryPerimeter=0;" parent="1" source="BEnT6rQUfcXDqJ1LdMgR-7" target="BEnT6rQUfcXDqJ1LdMgR-1" edge="1">
          <mxGeometry width="50" height="50" relative="1" as="geometry">
            <mxPoint x="1450" y="1200" as="sourcePoint" />
            <mxPoint x="1500" y="1150" as="targetPoint" />
          </mxGeometry>
        </mxCell>
        <mxCell id="BEnT6rQUfcXDqJ1LdMgR-92" value="" style="endArrow=none;html=1;rounded=0;entryX=0.94;entryY=1;entryDx=0;entryDy=0;entryPerimeter=0;exitX=0.086;exitY=0.169;exitDx=0;exitDy=0;exitPerimeter=0;" parent="1" source="BEnT6rQUfcXDqJ1LdMgR-9" target="BEnT6rQUfcXDqJ1LdMgR-1" edge="1">
          <mxGeometry width="50" height="50" relative="1" as="geometry">
            <mxPoint x="1450" y="1200" as="sourcePoint" />
            <mxPoint x="1500" y="1150" as="targetPoint" />
          </mxGeometry>
        </mxCell>
        <mxCell id="BEnT6rQUfcXDqJ1LdMgR-93" value="" style="endArrow=none;html=1;rounded=0;entryX=0.994;entryY=0.819;entryDx=0;entryDy=0;entryPerimeter=0;exitX=0;exitY=0;exitDx=0;exitDy=0;" parent="1" source="BEnT6rQUfcXDqJ1LdMgR-8" target="BEnT6rQUfcXDqJ1LdMgR-1" edge="1">
          <mxGeometry width="50" height="50" relative="1" as="geometry">
            <mxPoint x="1450" y="1200" as="sourcePoint" />
            <mxPoint x="1500" y="1150" as="targetPoint" />
          </mxGeometry>
        </mxCell>
        <mxCell id="tUl1dQ9-iOoh-FzDMIxj-1" value="ordder" style="rounded=0;whiteSpace=wrap;html=1;" parent="1" vertex="1">
          <mxGeometry x="285" y="1000" width="120" height="60" as="geometry" />
        </mxCell>
        <mxCell id="tUl1dQ9-iOoh-FzDMIxj-4" value="&lt;u&gt;order_id&lt;/u&gt;" style="ellipse;whiteSpace=wrap;html=1;" parent="1" vertex="1">
          <mxGeometry x="10" y="1048" width="120" height="80" as="geometry" />
        </mxCell>
        <mxCell id="tUl1dQ9-iOoh-FzDMIxj-5" value="user_id" style="ellipse;whiteSpace=wrap;html=1;" parent="1" vertex="1">
          <mxGeometry x="10" y="960" width="120" height="80" as="geometry" />
        </mxCell>
        <mxCell id="tUl1dQ9-iOoh-FzDMIxj-6" value="order_date" style="ellipse;whiteSpace=wrap;html=1;" parent="1" vertex="1">
          <mxGeometry x="465" y="830" width="120" height="80" as="geometry" />
        </mxCell>
        <mxCell id="tUl1dQ9-iOoh-FzDMIxj-7" value="total_amout" style="ellipse;whiteSpace=wrap;html=1;" parent="1" vertex="1">
          <mxGeometry x="490" y="950" width="120" height="80" as="geometry" />
        </mxCell>
        <mxCell id="tUl1dQ9-iOoh-FzDMIxj-8" value="payment_method" style="ellipse;whiteSpace=wrap;html=1;" parent="1" vertex="1">
          <mxGeometry x="90" y="1120" width="120" height="80" as="geometry" />
        </mxCell>
        <mxCell id="tUl1dQ9-iOoh-FzDMIxj-9" value="status" style="ellipse;whiteSpace=wrap;html=1;" parent="1" vertex="1">
          <mxGeometry x="400" y="1080" width="120" height="80" as="geometry" />
        </mxCell>
        <mxCell id="tUl1dQ9-iOoh-FzDMIxj-11" value="" style="endArrow=none;html=1;rounded=0;exitX=0;exitY=0;exitDx=0;exitDy=0;" parent="1" source="BEnT6rQUfcXDqJ1LdMgR-1" edge="1">
          <mxGeometry width="50" height="50" relative="1" as="geometry">
            <mxPoint x="1300" y="1050" as="sourcePoint" />
            <mxPoint x="1000" y="830" as="targetPoint" />
            <Array as="points">
              <mxPoint x="1280" y="830" />
            </Array>
          </mxGeometry>
        </mxCell>
        <mxCell id="tUl1dQ9-iOoh-FzDMIxj-12" value="สามารถสั่ง" style="rhombus;whiteSpace=wrap;html=1;" parent="1" vertex="1">
          <mxGeometry x="860" y="770" width="140" height="120" as="geometry" />
        </mxCell>
        <mxCell id="tUl1dQ9-iOoh-FzDMIxj-13" value="" style="endArrow=none;html=1;rounded=0;entryX=0.5;entryY=1;entryDx=0;entryDy=0;exitX=0;exitY=0.5;exitDx=0;exitDy=0;" parent="1" source="tUl1dQ9-iOoh-FzDMIxj-12" target="tUl1dQ9-iOoh-FzDMIxj-1" edge="1">
          <mxGeometry width="50" height="50" relative="1" as="geometry">
            <mxPoint x="760" y="920" as="sourcePoint" />
            <mxPoint x="295" y="1180" as="targetPoint" />
            <Array as="points">
              <mxPoint x="740" y="830" />
              <mxPoint x="740" y="1190" />
              <mxPoint x="345" y="1190" />
            </Array>
          </mxGeometry>
        </mxCell>
        <mxCell id="tUl1dQ9-iOoh-FzDMIxj-14" value="1" style="text;html=1;align=center;verticalAlign=middle;resizable=0;points=[];autosize=1;strokeColor=none;fillColor=none;" parent="1" vertex="1">
          <mxGeometry x="1270" y="1020" width="30" height="30" as="geometry" />
        </mxCell>
        <mxCell id="tUl1dQ9-iOoh-FzDMIxj-15" value="M" style="text;html=1;align=center;verticalAlign=middle;resizable=0;points=[];autosize=1;strokeColor=none;fillColor=none;" parent="1" vertex="1">
          <mxGeometry x="345" y="1060" width="30" height="30" as="geometry" />
        </mxCell>
        <mxCell id="tUl1dQ9-iOoh-FzDMIxj-16" value="" style="endArrow=none;html=1;rounded=0;exitX=1;exitY=0.5;exitDx=0;exitDy=0;" parent="1" source="tUl1dQ9-iOoh-FzDMIxj-1" target="tUl1dQ9-iOoh-FzDMIxj-9" edge="1">
          <mxGeometry width="50" height="50" relative="1" as="geometry">
            <mxPoint x="405" y="1030" as="sourcePoint" />
            <mxPoint x="455" y="980" as="targetPoint" />
          </mxGeometry>
        </mxCell>
        <mxCell id="tUl1dQ9-iOoh-FzDMIxj-17" value="" style="endArrow=none;html=1;rounded=0;entryX=0.022;entryY=0.641;entryDx=0;entryDy=0;exitX=1;exitY=0;exitDx=0;exitDy=0;entryPerimeter=0;" parent="1" source="tUl1dQ9-iOoh-FzDMIxj-1" edge="1" target="tUl1dQ9-iOoh-FzDMIxj-7">
          <mxGeometry width="50" height="50" relative="1" as="geometry">
            <mxPoint x="405" y="1000" as="sourcePoint" />
            <mxPoint x="495" y="970" as="targetPoint" />
          </mxGeometry>
        </mxCell>
        <mxCell id="tUl1dQ9-iOoh-FzDMIxj-18" value="" style="endArrow=none;html=1;rounded=0;exitX=0.837;exitY=-0.006;exitDx=0;exitDy=0;exitPerimeter=0;" parent="1" source="tUl1dQ9-iOoh-FzDMIxj-1" target="tUl1dQ9-iOoh-FzDMIxj-6" edge="1">
          <mxGeometry width="50" height="50" relative="1" as="geometry">
            <mxPoint x="295" y="940" as="sourcePoint" />
            <mxPoint x="345" y="890" as="targetPoint" />
          </mxGeometry>
        </mxCell>
        <mxCell id="tUl1dQ9-iOoh-FzDMIxj-19" value="" style="endArrow=none;html=1;rounded=0;exitX=0.005;exitY=0.177;exitDx=0;exitDy=0;exitPerimeter=0;" parent="1" source="tUl1dQ9-iOoh-FzDMIxj-1" target="tUl1dQ9-iOoh-FzDMIxj-5" edge="1">
          <mxGeometry width="50" height="50" relative="1" as="geometry">
            <mxPoint x="75" y="920" as="sourcePoint" />
            <mxPoint x="125" y="870" as="targetPoint" />
          </mxGeometry>
        </mxCell>
        <mxCell id="tUl1dQ9-iOoh-FzDMIxj-20" value="" style="endArrow=none;html=1;rounded=0;exitX=0.992;exitY=0.447;exitDx=0;exitDy=0;exitPerimeter=0;entryX=-0.008;entryY=0.615;entryDx=0;entryDy=0;entryPerimeter=0;" parent="1" source="tUl1dQ9-iOoh-FzDMIxj-4" target="tUl1dQ9-iOoh-FzDMIxj-1" edge="1">
          <mxGeometry width="50" height="50" relative="1" as="geometry">
            <mxPoint x="225" y="1050" as="sourcePoint" />
            <mxPoint x="275" y="1000" as="targetPoint" />
          </mxGeometry>
        </mxCell>
        <mxCell id="tUl1dQ9-iOoh-FzDMIxj-21" value="" style="endArrow=none;html=1;rounded=0;exitX=0.792;exitY=0.085;exitDx=0;exitDy=0;exitPerimeter=0;" parent="1" source="tUl1dQ9-iOoh-FzDMIxj-8" target="tUl1dQ9-iOoh-FzDMIxj-1" edge="1">
          <mxGeometry width="50" height="50" relative="1" as="geometry">
            <mxPoint x="245" y="1112.96" as="sourcePoint" />
            <mxPoint x="307.76" y="1060" as="targetPoint" />
          </mxGeometry>
        </mxCell>
        <mxCell id="tUl1dQ9-iOoh-FzDMIxj-22" value="cart" style="rounded=0;whiteSpace=wrap;html=1;" parent="1" vertex="1">
          <mxGeometry x="680" y="460" width="120" height="60" as="geometry" />
        </mxCell>
        <mxCell id="tUl1dQ9-iOoh-FzDMIxj-25" value="&lt;u&gt;cart_id&lt;/u&gt;" style="ellipse;whiteSpace=wrap;html=1;" parent="1" vertex="1">
          <mxGeometry x="600" y="330" width="120" height="80" as="geometry" />
        </mxCell>
        <mxCell id="tUl1dQ9-iOoh-FzDMIxj-26" value="product_name" style="ellipse;whiteSpace=wrap;html=1;" parent="1" vertex="1">
          <mxGeometry x="405" y="460" width="120" height="80" as="geometry" />
        </mxCell>
        <mxCell id="tUl1dQ9-iOoh-FzDMIxj-30" value="user_id" style="ellipse;whiteSpace=wrap;html=1;" parent="1" vertex="1">
          <mxGeometry x="460" y="374" width="120" height="80" as="geometry" />
        </mxCell>
        <mxCell id="tUl1dQ9-iOoh-FzDMIxj-31" value="quantity" style="ellipse;whiteSpace=wrap;html=1;" parent="1" vertex="1">
          <mxGeometry x="430" y="560" width="120" height="80" as="geometry" />
        </mxCell>
        <mxCell id="tUl1dQ9-iOoh-FzDMIxj-39" value="" style="endArrow=none;html=1;rounded=0;exitX=0.979;exitY=0.367;exitDx=0;exitDy=0;exitPerimeter=0;" parent="1" source="tUl1dQ9-iOoh-FzDMIxj-31" target="tUl1dQ9-iOoh-FzDMIxj-22" edge="1">
          <mxGeometry width="50" height="50" relative="1" as="geometry">
            <mxPoint x="320" y="550" as="sourcePoint" />
            <mxPoint x="370" y="500" as="targetPoint" />
          </mxGeometry>
        </mxCell>
        <mxCell id="tUl1dQ9-iOoh-FzDMIxj-40" value="" style="endArrow=none;html=1;rounded=0;entryX=0;entryY=0.5;entryDx=0;entryDy=0;exitX=1.004;exitY=0.602;exitDx=0;exitDy=0;exitPerimeter=0;" parent="1" source="tUl1dQ9-iOoh-FzDMIxj-26" target="tUl1dQ9-iOoh-FzDMIxj-22" edge="1">
          <mxGeometry width="50" height="50" relative="1" as="geometry">
            <mxPoint x="320" y="460" as="sourcePoint" />
            <mxPoint x="370" y="410" as="targetPoint" />
          </mxGeometry>
        </mxCell>
        <mxCell id="tUl1dQ9-iOoh-FzDMIxj-41" value="" style="endArrow=none;html=1;rounded=0;exitX=0.979;exitY=0.661;exitDx=0;exitDy=0;entryX=0;entryY=0.25;entryDx=0;entryDy=0;exitPerimeter=0;" parent="1" source="tUl1dQ9-iOoh-FzDMIxj-30" target="tUl1dQ9-iOoh-FzDMIxj-22" edge="1">
          <mxGeometry width="50" height="50" relative="1" as="geometry">
            <mxPoint x="450" y="340" as="sourcePoint" />
            <mxPoint x="500" y="290" as="targetPoint" />
          </mxGeometry>
        </mxCell>
        <mxCell id="tUl1dQ9-iOoh-FzDMIxj-42" value="" style="endArrow=none;html=1;rounded=0;exitX=0.74;exitY=0.936;exitDx=0;exitDy=0;entryX=0;entryY=0;entryDx=0;entryDy=0;exitPerimeter=0;" parent="1" source="tUl1dQ9-iOoh-FzDMIxj-25" target="tUl1dQ9-iOoh-FzDMIxj-22" edge="1">
          <mxGeometry width="50" height="50" relative="1" as="geometry">
            <mxPoint x="450" y="340" as="sourcePoint" />
            <mxPoint x="500" y="290" as="targetPoint" />
          </mxGeometry>
        </mxCell>
        <mxCell id="tUl1dQ9-iOoh-FzDMIxj-43" value="" style="endArrow=none;html=1;rounded=0;exitX=0.941;exitY=0.97;exitDx=0;exitDy=0;exitPerimeter=0;entryX=0.497;entryY=0.954;entryDx=0;entryDy=0;entryPerimeter=0;" parent="1" source="tUl1dQ9-iOoh-FzDMIxj-14" target="tUl1dQ9-iOoh-FzDMIxj-44" edge="1">
          <mxGeometry width="50" height="50" relative="1" as="geometry">
            <mxPoint x="1290" y="827" as="sourcePoint" />
            <mxPoint x="1000" y="600" as="targetPoint" />
            <Array as="points">
              <mxPoint x="1298" y="680" />
              <mxPoint x="1000" y="680" />
            </Array>
          </mxGeometry>
        </mxCell>
        <mxCell id="tUl1dQ9-iOoh-FzDMIxj-44" value="เพิ่ม" style="rhombus;whiteSpace=wrap;html=1;" parent="1" vertex="1">
          <mxGeometry x="960" y="550" width="80" height="80" as="geometry" />
        </mxCell>
        <mxCell id="tUl1dQ9-iOoh-FzDMIxj-45" value="" style="endArrow=none;html=1;rounded=0;exitX=0;exitY=0.5;exitDx=0;exitDy=0;entryX=0.414;entryY=1.025;entryDx=0;entryDy=0;entryPerimeter=0;" parent="1" source="tUl1dQ9-iOoh-FzDMIxj-44" target="tUl1dQ9-iOoh-FzDMIxj-22" edge="1">
          <mxGeometry width="50" height="50" relative="1" as="geometry">
            <mxPoint x="950" y="550" as="sourcePoint" />
            <mxPoint x="670" y="545" as="targetPoint" />
            <Array as="points">
              <mxPoint x="730" y="590" />
            </Array>
          </mxGeometry>
        </mxCell>
        <mxCell id="tUl1dQ9-iOoh-FzDMIxj-46" value="1" style="text;html=1;align=center;verticalAlign=middle;resizable=0;points=[];autosize=1;strokeColor=none;fillColor=none;" parent="1" vertex="1">
          <mxGeometry x="1290" y="1020" width="30" height="30" as="geometry" />
        </mxCell>
        <mxCell id="tUl1dQ9-iOoh-FzDMIxj-47" value="M" style="text;html=1;align=center;verticalAlign=middle;resizable=0;points=[];autosize=1;strokeColor=none;fillColor=none;" parent="1" vertex="1">
          <mxGeometry x="700" y="520" width="30" height="30" as="geometry" />
        </mxCell>
        <mxCell id="tUl1dQ9-iOoh-FzDMIxj-49" value="1" style="text;html=1;align=center;verticalAlign=middle;resizable=0;points=[];autosize=1;strokeColor=none;fillColor=none;" parent="1" vertex="1">
          <mxGeometry x="1300" y="200" width="30" height="30" as="geometry" />
        </mxCell>
        <mxCell id="b-yq_bD7KO0U-A9qQjm1-1" value="" style="endArrow=none;html=1;rounded=0;entryX=0.125;entryY=1.009;entryDx=0;entryDy=0;entryPerimeter=0;exitX=0.627;exitY=0.005;exitDx=0;exitDy=0;exitPerimeter=0;" parent="1" source="b-yq_bD7KO0U-A9qQjm1-2" target="tUl1dQ9-iOoh-FzDMIxj-22" edge="1">
          <mxGeometry width="50" height="50" relative="1" as="geometry">
            <mxPoint x="630" y="630" as="sourcePoint" />
            <mxPoint x="692" y="530" as="targetPoint" />
          </mxGeometry>
        </mxCell>
        <mxCell id="b-yq_bD7KO0U-A9qQjm1-2" value="image" style="ellipse;whiteSpace=wrap;html=1;" parent="1" vertex="1">
          <mxGeometry x="560" y="630" width="120" height="80" as="geometry" />
        </mxCell>
        <mxCell id="YkiIM6StDG9PqtfNwLpJ-1" value="เขียน" style="rhombus;whiteSpace=wrap;html=1;" parent="1" vertex="1">
          <mxGeometry x="1900" y="1015" width="130" height="130" as="geometry" />
        </mxCell>
        <mxCell id="YkiIM6StDG9PqtfNwLpJ-2" value="" style="endArrow=none;html=1;rounded=0;exitX=1.013;exitY=0.369;exitDx=0;exitDy=0;exitPerimeter=0;entryX=0;entryY=0.5;entryDx=0;entryDy=0;" parent="1" source="BEnT6rQUfcXDqJ1LdMgR-1" target="YkiIM6StDG9PqtfNwLpJ-1" edge="1">
          <mxGeometry width="50" height="50" relative="1" as="geometry">
            <mxPoint x="1410" y="1080" as="sourcePoint" />
            <mxPoint x="1460" y="1030" as="targetPoint" />
          </mxGeometry>
        </mxCell>
        <mxCell id="YkiIM6StDG9PqtfNwLpJ-3" value="Reviews" style="rounded=0;whiteSpace=wrap;html=1;" parent="1" vertex="1">
          <mxGeometry x="2291" y="1050" width="120" height="60" as="geometry" />
        </mxCell>
        <mxCell id="YkiIM6StDG9PqtfNwLpJ-4" value="" style="endArrow=none;html=1;rounded=0;entryX=0;entryY=0.5;entryDx=0;entryDy=0;exitX=1;exitY=0.5;exitDx=0;exitDy=0;" parent="1" source="YkiIM6StDG9PqtfNwLpJ-1" target="YkiIM6StDG9PqtfNwLpJ-3" edge="1">
          <mxGeometry width="50" height="50" relative="1" as="geometry">
            <mxPoint x="2120" y="1020" as="sourcePoint" />
            <mxPoint x="2170" y="970" as="targetPoint" />
          </mxGeometry>
        </mxCell>
        <mxCell id="YkiIM6StDG9PqtfNwLpJ-5" value="&lt;u&gt;review_id&lt;/u&gt;" style="ellipse;whiteSpace=wrap;html=1;" parent="1" vertex="1">
          <mxGeometry x="2281" y="890" width="120" height="80" as="geometry" />
        </mxCell>
        <mxCell id="YkiIM6StDG9PqtfNwLpJ-6" value="" style="endArrow=none;html=1;rounded=0;entryX=0.267;entryY=0.959;entryDx=0;entryDy=0;entryPerimeter=0;exitX=0.105;exitY=0.023;exitDx=0;exitDy=0;exitPerimeter=0;" parent="1" source="YkiIM6StDG9PqtfNwLpJ-3" target="YkiIM6StDG9PqtfNwLpJ-5" edge="1">
          <mxGeometry width="50" height="50" relative="1" as="geometry">
            <mxPoint x="2250" y="1060" as="sourcePoint" />
            <mxPoint x="2300" y="1010" as="targetPoint" />
          </mxGeometry>
        </mxCell>
        <mxCell id="YkiIM6StDG9PqtfNwLpJ-7" value="user_id" style="ellipse;whiteSpace=wrap;html=1;" parent="1" vertex="1">
          <mxGeometry x="2431" y="890" width="120" height="80" as="geometry" />
        </mxCell>
        <mxCell id="YkiIM6StDG9PqtfNwLpJ-8" value="" style="endArrow=none;html=1;rounded=0;entryX=0.209;entryY=0.943;entryDx=0;entryDy=0;entryPerimeter=0;" parent="1" source="YkiIM6StDG9PqtfNwLpJ-3" target="YkiIM6StDG9PqtfNwLpJ-7" edge="1">
          <mxGeometry width="50" height="50" relative="1" as="geometry">
            <mxPoint x="2351" y="1050" as="sourcePoint" />
            <mxPoint x="2401" y="1000" as="targetPoint" />
          </mxGeometry>
        </mxCell>
        <mxCell id="YkiIM6StDG9PqtfNwLpJ-9" value="email" style="ellipse;whiteSpace=wrap;html=1;" parent="1" vertex="1">
          <mxGeometry x="2511" y="970" width="120" height="80" as="geometry" />
        </mxCell>
        <mxCell id="YkiIM6StDG9PqtfNwLpJ-10" value="message" style="ellipse;whiteSpace=wrap;html=1;" parent="1" vertex="1">
          <mxGeometry x="2521" y="1080" width="120" height="80" as="geometry" />
        </mxCell>
        <mxCell id="YkiIM6StDG9PqtfNwLpJ-11" value="" style="endArrow=none;html=1;rounded=0;exitX=1;exitY=0.25;exitDx=0;exitDy=0;entryX=-0.016;entryY=0.607;entryDx=0;entryDy=0;entryPerimeter=0;" parent="1" source="YkiIM6StDG9PqtfNwLpJ-3" target="YkiIM6StDG9PqtfNwLpJ-9" edge="1">
          <mxGeometry width="50" height="50" relative="1" as="geometry">
            <mxPoint x="2420" y="1065" as="sourcePoint" />
            <mxPoint x="2470" y="1015" as="targetPoint" />
          </mxGeometry>
        </mxCell>
        <mxCell id="YkiIM6StDG9PqtfNwLpJ-12" value="" style="endArrow=none;html=1;rounded=0;exitX=1;exitY=0.75;exitDx=0;exitDy=0;entryX=0.034;entryY=0.411;entryDx=0;entryDy=0;entryPerimeter=0;" parent="1" source="YkiIM6StDG9PqtfNwLpJ-3" target="YkiIM6StDG9PqtfNwLpJ-10" edge="1">
          <mxGeometry width="50" height="50" relative="1" as="geometry">
            <mxPoint x="2450" y="1120" as="sourcePoint" />
            <mxPoint x="2500" y="1070" as="targetPoint" />
          </mxGeometry>
        </mxCell>
        <mxCell id="YkiIM6StDG9PqtfNwLpJ-13" value="1" style="text;html=1;align=center;verticalAlign=middle;resizable=0;points=[];autosize=1;strokeColor=none;fillColor=none;" parent="1" vertex="1">
          <mxGeometry x="1405" y="1048" width="30" height="30" as="geometry" />
        </mxCell>
        <mxCell id="YkiIM6StDG9PqtfNwLpJ-14" value="M" style="text;html=1;align=center;verticalAlign=middle;resizable=0;points=[];autosize=1;strokeColor=none;fillColor=none;" parent="1" vertex="1">
          <mxGeometry x="2251" y="1050" width="30" height="30" as="geometry" />
        </mxCell>
        <mxCell id="dIeJUK3PiPdq7s5NgM4B-1" value="" style="endArrow=none;html=1;rounded=0;exitX=1;exitY=1;exitDx=0;exitDy=0;" edge="1" parent="1" source="dIeJUK3PiPdq7s5NgM4B-2" target="tUl1dQ9-iOoh-FzDMIxj-1">
          <mxGeometry width="50" height="50" relative="1" as="geometry">
            <mxPoint x="180" y="900" as="sourcePoint" />
            <mxPoint x="300" y="950" as="targetPoint" />
          </mxGeometry>
        </mxCell>
        <mxCell id="dIeJUK3PiPdq7s5NgM4B-2" value="tel" style="ellipse;whiteSpace=wrap;html=1;" vertex="1" parent="1">
          <mxGeometry x="10" y="870" width="120" height="80" as="geometry" />
        </mxCell>
        <mxCell id="dIeJUK3PiPdq7s5NgM4B-3" value="address" style="ellipse;whiteSpace=wrap;html=1;" vertex="1" parent="1">
          <mxGeometry x="80" y="790" width="120" height="80" as="geometry" />
        </mxCell>
        <mxCell id="dIeJUK3PiPdq7s5NgM4B-4" value="" style="endArrow=none;html=1;rounded=0;" edge="1" parent="1" source="tUl1dQ9-iOoh-FzDMIxj-1" target="dIeJUK3PiPdq7s5NgM4B-3">
          <mxGeometry width="50" height="50" relative="1" as="geometry">
            <mxPoint x="220" y="970" as="sourcePoint" />
            <mxPoint x="270" y="920" as="targetPoint" />
          </mxGeometry>
        </mxCell>
        <mxCell id="dIeJUK3PiPdq7s5NgM4B-5" value="total_products" style="ellipse;whiteSpace=wrap;html=1;" vertex="1" parent="1">
          <mxGeometry x="225" y="780" width="120" height="80" as="geometry" />
        </mxCell>
        <mxCell id="dIeJUK3PiPdq7s5NgM4B-6" value="" style="endArrow=none;html=1;rounded=0;" edge="1" parent="1" source="tUl1dQ9-iOoh-FzDMIxj-1" target="dIeJUK3PiPdq7s5NgM4B-5">
          <mxGeometry width="50" height="50" relative="1" as="geometry">
            <mxPoint x="320" y="980" as="sourcePoint" />
            <mxPoint x="370" y="930" as="targetPoint" />
          </mxGeometry>
        </mxCell>
        <mxCell id="dIeJUK3PiPdq7s5NgM4B-7" value="price" style="ellipse;whiteSpace=wrap;html=1;" vertex="1" parent="1">
          <mxGeometry x="750" y="320" width="120" height="80" as="geometry" />
        </mxCell>
        <mxCell id="dIeJUK3PiPdq7s5NgM4B-8" value="" style="endArrow=none;html=1;rounded=0;" edge="1" parent="1" source="tUl1dQ9-iOoh-FzDMIxj-22" target="dIeJUK3PiPdq7s5NgM4B-7">
          <mxGeometry width="50" height="50" relative="1" as="geometry">
            <mxPoint x="740" y="460" as="sourcePoint" />
            <mxPoint x="790" y="410" as="targetPoint" />
          </mxGeometry>
        </mxCell>
      </root>
    </mxGraphModel>
  </diagram>
</mxfile>
